<svg id="icono" xmlns="http://www.w3.org/2000/svg" viewBox="0 0 100 100">
  <title>Logo de red global</title>
  <defs>
    <radialGradient id="grad1" cx="50%" cy="50%" r="50%" fx="30%" fy="30%">
      <stop offset="0%" style="stop-color:#4a90e2;stop-opacity:1" />
      <stop offset="100%" style="stop-color:#8e44ad;stop-opacity:1" />
    </radialGradient>
  </defs>
  <circle cx="50" cy="50" r="50" fill="url(#grad1)" />

  <path d="M 50 10 A 30 30 0 1 0 50 90 A 30 30 0 1 0 50 10 Z" fill="none" stroke="#add8e6" stroke-width="1.5" opacity="0.5" />
  <path d="M 10 50 A 30 30 0 1 1 90 50 A 30 30 0 1 1 10 50 Z" fill="none" stroke="#add8e6" stroke-width="1.5" opacity="0.5" />
  <path d="M 25 25 A 40 25 0 1 0 75 75 A 40 25 0 1 0 25 25 Z" fill="none" stroke="#add8e6" stroke-width="1.5" opacity="0.5" transform="rotate(45 50 50)" />
  
  <circle cx="50" cy="10" r="5" fill="#f1c40f" />
  <circle cx="50" cy="90" r="5" fill="#f1c40f" />
  <circle cx="10" cy="50" r="5" fill="#4a90e2" />
  <circle cx="90" cy="50" r="5" fill="#f1c40f" />
  <circle cx="75" cy="75" r="3" fill="#add8e6" />
</svg>

